# xmcd CD database file
#
# Track frame offsets:
#	150
#	4814
#	15290
#	27613
#	41916
#	53118
#	64169
#	67747
#	73128
#	84274
#	95427
#	106242
#	116175
#	126681
#
# Disc length: 1741 seconds
#
# Revision: 0
# Processed by: cddbd v1.5.2PL0 Copyright (c) Steve Scherf et al.
# Submitted via: CDex 1.83
#
DISCID=c006cb0e
DTITLE=The American Breed - Pumpkin, Powder, Scarlet and Green - Pumpkin, Powder, Scarlet and Green
DYEAR=1969
DGENRE=Bubblegum Music
TTITLE0=Pumpkin
TTITLE1=Cool It (We're Not Alone
TTITLE2=Welcome, You're In Love
TTITLE3=The Right To Cry
TTITLE4=Ready, Willing And Able
TTITLE5=Take Me If You Want Me
TTITLE6=Powder
TTITLE7=Scarlet
TTITLE8=Anyway That You Want Me
TTITLE9=Master Of My Fate
TTITLE10=Music To Think By
TTITLE11=Train On A One-Track Mind
TTITLE12=I'm Gonna Make You Mine
TTITLE13=Green
EXTD=YEAR: 1969
EXTT0=
EXTT1=
EXTT2=
EXTT3=
EXTT4=
EXTT5=
EXTT6=
EXTT7=
EXTT8=
EXTT9=
EXTT10=
EXTT11=
EXTT12=
EXTT13=
PLAYORDER=
